<svg width="50" height="50" viewBox="0 0 101 101" fill="none"
    xmlns="http://www.w3.org/2000/svg">
    <path d="M50.5 0.5C22.93 0.5 0.5 22.93 0.5 50.5C0.5 78.07 22.93 100.5 50.5 100.5C57.83 100.5 65.305 98.645 72.71 94.98L68.285 86.015C62.265 88.99 56.28 90.5 50.5 90.5C28.445 90.5 10.5 72.555 10.5 50.5C10.5 28.445 28.445 10.5 50.5 10.5C72.555 10.5 90.5 28.445 90.5 50.5V55.5C90.5 58.96 88.935 65.5 83 65.5C76.02 65.5 75.53 56.405 75.5 55.5V30.5H65.5V30.625C61.1964 27.3197 55.9264 25.5192 50.5 25.5C36.715 25.5 25.5 36.715 25.5 50.5C25.5 64.285 36.715 75.5 50.5 75.5C57.75 75.5 64.24 72.345 68.81 67.395C71.43 71.845 75.85 75.5 83 75.5C94.365 75.5 100.5 65.195 100.5 55.5V50.5C100.5 22.93 78.07 0.5 50.5 0.5ZM50.5 65.5C42.23 65.5 35.5 58.77 35.5 50.5C35.5 42.23 42.23 35.5 50.5 35.5C58.77 35.5 65.5 42.23 65.5 50.5C65.5 58.77 58.77 65.5 50.5 65.5Z" fill="black" fill-opacity="0.4"/>
</svg>
